<svg width="34" height="34" viewBox="0 0 34 34" fill="none" xmlns="http://www.w3.org/2000/svg">
<path d="M10.3333 16.1667L15.3333 21.1667L23.6667 12.8333M17 32C13.0218 32 9.20644 30.4196 6.3934 27.6066C3.58035 24.7936 2 20.9782 2 17V17C2 13.0218 3.58035 9.20644 6.3934 6.3934C9.20644 3.58035 13.0218 2 17 2V2C20.9782 2 24.7936 3.58035 27.6066 6.3934C30.4196 9.20644 32 13.0218 32 17V17C32 20.9782 30.4196 24.7936 27.6066 27.6066C24.7936 30.4196 20.9782 32 17 32V32Z" stroke="#0080FF" stroke-width="3" stroke-linecap="round" stroke-linejoin="round"/>
</svg>
